<mxfile host="app.diagrams.net" modified="2024-04-01T17:04:14.544Z" agent="Mozilla/5.0 (Windows NT 10.0; Win64; x64) AppleWebKit/537.36 (KHTML, like Gecko) Chrome/123.0.0.0 Safari/537.36" etag="WqbVuipEB2GjgCIdCFm6" version="24.2.1" type="device" pages="2">
  <diagram id="IKI1SM8o6NSH0U-nmxwP" name="Page-2">
    <mxGraphModel dx="1909" dy="949" grid="1" gridSize="10" guides="1" tooltips="1" connect="1" arrows="1" fold="1" page="1" pageScale="1" pageWidth="850" pageHeight="1100" math="0" shadow="0">
      <root>
        <mxCell id="0" />
        <mxCell id="1" parent="0" />
        <mxCell id="31rvPIN-nSFAEJS1RQA3-17" style="edgeStyle=orthogonalEdgeStyle;rounded=0;orthogonalLoop=1;jettySize=auto;html=1;exitX=1;exitY=0.25;exitDx=0;exitDy=0;entryX=0;entryY=0.25;entryDx=0;entryDy=0;" edge="1" parent="1" source="HJo8T9jL2ltB90ftPoCm-2" target="31rvPIN-nSFAEJS1RQA3-13">
          <mxGeometry relative="1" as="geometry" />
        </mxCell>
        <mxCell id="yIOIV1xacTzEMDDMlW0B-16" style="edgeStyle=orthogonalEdgeStyle;rounded=0;orthogonalLoop=1;jettySize=auto;html=1;entryX=0.5;entryY=0;entryDx=0;entryDy=0;" edge="1" parent="1" source="HJo8T9jL2ltB90ftPoCm-2" target="r06UNlYt8YJPEvpFZ8E3-7">
          <mxGeometry relative="1" as="geometry" />
        </mxCell>
        <mxCell id="yIOIV1xacTzEMDDMlW0B-39" style="edgeStyle=orthogonalEdgeStyle;rounded=0;orthogonalLoop=1;jettySize=auto;html=1;exitX=1;exitY=0.75;exitDx=0;exitDy=0;" edge="1" parent="1" source="HJo8T9jL2ltB90ftPoCm-2" target="yIOIV1xacTzEMDDMlW0B-37">
          <mxGeometry relative="1" as="geometry">
            <Array as="points">
              <mxPoint x="320" y="280" />
            </Array>
          </mxGeometry>
        </mxCell>
        <mxCell id="yIOIV1xacTzEMDDMlW0B-52" style="edgeStyle=orthogonalEdgeStyle;rounded=0;orthogonalLoop=1;jettySize=auto;html=1;exitX=0.5;exitY=1;exitDx=0;exitDy=0;" edge="1" parent="1" source="HJo8T9jL2ltB90ftPoCm-2">
          <mxGeometry relative="1" as="geometry">
            <mxPoint x="680" y="400" as="targetPoint" />
          </mxGeometry>
        </mxCell>
        <mxCell id="HJo8T9jL2ltB90ftPoCm-2" value="" style="whiteSpace=wrap;html=1;aspect=fixed;" parent="1" vertex="1">
          <mxGeometry x="60" y="60" width="260" height="260" as="geometry" />
        </mxCell>
        <mxCell id="HJo8T9jL2ltB90ftPoCm-3" value="&lt;b&gt;Login and Authentication&lt;/b&gt;" style="text;html=1;align=center;verticalAlign=middle;whiteSpace=wrap;rounded=0;" parent="1" vertex="1">
          <mxGeometry x="100" y="70" width="160" height="30" as="geometry" />
        </mxCell>
        <mxCell id="31rvPIN-nSFAEJS1RQA3-1" style="edgeStyle=orthogonalEdgeStyle;rounded=0;orthogonalLoop=1;jettySize=auto;html=1;exitX=0.5;exitY=1;exitDx=0;exitDy=0;entryX=0.5;entryY=0;entryDx=0;entryDy=0;" edge="1" parent="1" source="HJo8T9jL2ltB90ftPoCm-4" target="HJo8T9jL2ltB90ftPoCm-5">
          <mxGeometry relative="1" as="geometry" />
        </mxCell>
        <mxCell id="HJo8T9jL2ltB90ftPoCm-4" value="Patient/Doctor signup" style="rounded=1;whiteSpace=wrap;html=1;" parent="1" vertex="1">
          <mxGeometry x="70" y="110" width="190" height="40" as="geometry" />
        </mxCell>
        <mxCell id="HJo8T9jL2ltB90ftPoCm-5" value="Creates profile" style="rounded=1;whiteSpace=wrap;html=1;" parent="1" vertex="1">
          <mxGeometry x="70" y="180" width="190" height="40" as="geometry" />
        </mxCell>
        <mxCell id="wAg1zJXAAW3Su3Cw2rr7-3" value="" style="rounded=0;whiteSpace=wrap;html=1;" vertex="1" parent="1">
          <mxGeometry x="920" y="350" width="220" height="140" as="geometry" />
        </mxCell>
        <mxCell id="g9qjDrlm2g0BfAVd62uz-1" value="Multilingual Support" style="rounded=0;whiteSpace=wrap;html=1;" vertex="1" parent="1">
          <mxGeometry x="400" y="160" width="170" height="60" as="geometry" />
        </mxCell>
        <mxCell id="9GWaNlZ7y38b1MyyGmCN-1" style="edgeStyle=orthogonalEdgeStyle;rounded=0;orthogonalLoop=1;jettySize=auto;html=1;exitX=1;exitY=0.5;exitDx=0;exitDy=0;entryX=0;entryY=0.5;entryDx=0;entryDy=0;" edge="1" parent="1" source="HJo8T9jL2ltB90ftPoCm-2" target="g9qjDrlm2g0BfAVd62uz-1">
          <mxGeometry relative="1" as="geometry">
            <mxPoint x="430" y="165" as="targetPoint" />
          </mxGeometry>
        </mxCell>
        <mxCell id="31rvPIN-nSFAEJS1RQA3-3" value="Catalog all the documents&amp;nbsp;&amp;nbsp;" style="shape=cylinder3;whiteSpace=wrap;html=1;boundedLbl=1;backgroundOutline=1;size=15;" vertex="1" parent="1">
          <mxGeometry x="220" y="230" width="75" height="80" as="geometry" />
        </mxCell>
        <mxCell id="31rvPIN-nSFAEJS1RQA3-7" style="edgeStyle=orthogonalEdgeStyle;rounded=0;orthogonalLoop=1;jettySize=auto;html=1;exitX=0.5;exitY=1;exitDx=0;exitDy=0;entryX=0;entryY=0;entryDx=0;entryDy=52.5;entryPerimeter=0;" edge="1" parent="1" source="HJo8T9jL2ltB90ftPoCm-5" target="31rvPIN-nSFAEJS1RQA3-3">
          <mxGeometry relative="1" as="geometry" />
        </mxCell>
        <mxCell id="31rvPIN-nSFAEJS1RQA3-13" value="" style="whiteSpace=wrap;html=1;aspect=fixed;" vertex="1" parent="1">
          <mxGeometry x="660" y="60" width="260" height="260" as="geometry" />
        </mxCell>
        <mxCell id="31rvPIN-nSFAEJS1RQA3-14" value="&lt;b&gt;Communication&amp;nbsp;&lt;/b&gt;" style="text;html=1;align=center;verticalAlign=middle;whiteSpace=wrap;rounded=0;" vertex="1" parent="1">
          <mxGeometry x="710" y="70" width="160" height="30" as="geometry" />
        </mxCell>
        <mxCell id="31rvPIN-nSFAEJS1RQA3-23" style="edgeStyle=orthogonalEdgeStyle;rounded=0;orthogonalLoop=1;jettySize=auto;html=1;exitX=0.25;exitY=1;exitDx=0;exitDy=0;entryX=0.25;entryY=0;entryDx=0;entryDy=0;" edge="1" parent="1" source="31rvPIN-nSFAEJS1RQA3-15" target="31rvPIN-nSFAEJS1RQA3-16">
          <mxGeometry relative="1" as="geometry" />
        </mxCell>
        <mxCell id="31rvPIN-nSFAEJS1RQA3-15" value="Meeting and Conference" style="rounded=1;whiteSpace=wrap;html=1;" vertex="1" parent="1">
          <mxGeometry x="690" y="110" width="190" height="40" as="geometry" />
        </mxCell>
        <mxCell id="31rvPIN-nSFAEJS1RQA3-16" value="Chatbot" style="rounded=1;whiteSpace=wrap;html=1;" vertex="1" parent="1">
          <mxGeometry x="690" y="260" width="190" height="40" as="geometry" />
        </mxCell>
        <mxCell id="31rvPIN-nSFAEJS1RQA3-18" value="Interaction for checkup" style="text;html=1;align=center;verticalAlign=middle;resizable=0;points=[];autosize=1;strokeColor=none;fillColor=none;" vertex="1" parent="1">
          <mxGeometry x="400" y="100" width="140" height="30" as="geometry" />
        </mxCell>
        <mxCell id="r06UNlYt8YJPEvpFZ8E3-4" style="edgeStyle=orthogonalEdgeStyle;rounded=0;orthogonalLoop=1;jettySize=auto;html=1;entryX=0.5;entryY=0;entryDx=0;entryDy=0;" edge="1" parent="1" source="31rvPIN-nSFAEJS1RQA3-21" target="wAg1zJXAAW3Su3Cw2rr7-3">
          <mxGeometry relative="1" as="geometry" />
        </mxCell>
        <mxCell id="31rvPIN-nSFAEJS1RQA3-21" value="Doctor uploads prescription." style="shape=cylinder3;whiteSpace=wrap;html=1;boundedLbl=1;backgroundOutline=1;size=15;" vertex="1" parent="1">
          <mxGeometry x="840" y="160" width="75" height="80" as="geometry" />
        </mxCell>
        <mxCell id="31rvPIN-nSFAEJS1RQA3-22" style="edgeStyle=orthogonalEdgeStyle;rounded=0;orthogonalLoop=1;jettySize=auto;html=1;entryX=0;entryY=0;entryDx=0;entryDy=52.5;entryPerimeter=0;" edge="1" parent="1" source="31rvPIN-nSFAEJS1RQA3-15" target="31rvPIN-nSFAEJS1RQA3-21">
          <mxGeometry relative="1" as="geometry" />
        </mxCell>
        <mxCell id="r06UNlYt8YJPEvpFZ8E3-1" value="&lt;b&gt;IOT Health Monitoring&lt;/b&gt;" style="text;html=1;align=center;verticalAlign=middle;whiteSpace=wrap;rounded=0;" vertex="1" parent="1">
          <mxGeometry x="955" y="360" width="150" height="30" as="geometry" />
        </mxCell>
        <mxCell id="r06UNlYt8YJPEvpFZ8E3-2" value="Check Glucose Levels" style="rounded=1;whiteSpace=wrap;html=1;" vertex="1" parent="1">
          <mxGeometry x="930" y="410" width="80" height="60" as="geometry" />
        </mxCell>
        <mxCell id="r06UNlYt8YJPEvpFZ8E3-3" value="Checks Blood pulse Rates" style="rounded=1;whiteSpace=wrap;html=1;" vertex="1" parent="1">
          <mxGeometry x="1050" y="410" width="80" height="60" as="geometry" />
        </mxCell>
        <mxCell id="r06UNlYt8YJPEvpFZ8E3-5" value="Doctor monitors&lt;div&gt;&amp;nbsp;and prescribes.&amp;nbsp;&lt;/div&gt;" style="text;html=1;align=center;verticalAlign=middle;resizable=0;points=[];autosize=1;strokeColor=none;fillColor=none;rotation=-90;" vertex="1" parent="1">
          <mxGeometry x="995" y="250" width="110" height="40" as="geometry" />
        </mxCell>
        <mxCell id="r06UNlYt8YJPEvpFZ8E3-6" value="Admin" style="rounded=0;whiteSpace=wrap;html=1;" vertex="1" parent="1">
          <mxGeometry x="20" y="470" width="120" height="60" as="geometry" />
        </mxCell>
        <mxCell id="yIOIV1xacTzEMDDMlW0B-36" style="edgeStyle=orthogonalEdgeStyle;rounded=0;orthogonalLoop=1;jettySize=auto;html=1;exitX=0;exitY=0.75;exitDx=0;exitDy=0;entryX=0.559;entryY=0.008;entryDx=0;entryDy=0;entryPerimeter=0;" edge="1" parent="1" source="r06UNlYt8YJPEvpFZ8E3-7" target="yIOIV1xacTzEMDDMlW0B-10">
          <mxGeometry relative="1" as="geometry">
            <mxPoint x="130" y="680" as="targetPoint" />
          </mxGeometry>
        </mxCell>
        <mxCell id="r06UNlYt8YJPEvpFZ8E3-7" value="" style="whiteSpace=wrap;html=1;aspect=fixed;" vertex="1" parent="1">
          <mxGeometry x="240" y="400" width="260" height="260" as="geometry" />
        </mxCell>
        <mxCell id="yIOIV1xacTzEMDDMlW0B-1" value="&lt;b&gt;Medication Reminder&lt;/b&gt;" style="text;html=1;align=center;verticalAlign=middle;whiteSpace=wrap;rounded=0;" vertex="1" parent="1">
          <mxGeometry x="295" y="420" width="140" height="30" as="geometry" />
        </mxCell>
        <mxCell id="yIOIV1xacTzEMDDMlW0B-2" value="Medication alarm system in their dashboard" style="rounded=1;whiteSpace=wrap;html=1;" vertex="1" parent="1">
          <mxGeometry x="250" y="470" width="230" height="50" as="geometry" />
        </mxCell>
        <mxCell id="yIOIV1xacTzEMDDMlW0B-4" value="" style="verticalLabelPosition=bottom;shadow=0;dashed=0;align=center;html=1;verticalAlign=top;strokeWidth=1;shape=mxgraph.mockup.misc.mail2;strokeColor=#0A0A0A;" vertex="1" parent="1">
          <mxGeometry x="250" y="550" width="100" height="80" as="geometry" />
        </mxCell>
        <mxCell id="yIOIV1xacTzEMDDMlW0B-27" style="edgeStyle=orthogonalEdgeStyle;rounded=0;orthogonalLoop=1;jettySize=auto;html=1;exitX=1;exitY=0.5;exitDx=0;exitDy=0;" edge="1" parent="1" source="yIOIV1xacTzEMDDMlW0B-5" target="yIOIV1xacTzEMDDMlW0B-7">
          <mxGeometry relative="1" as="geometry" />
        </mxCell>
        <mxCell id="yIOIV1xacTzEMDDMlW0B-5" value="Users receive email reminders." style="text;html=1;align=center;verticalAlign=middle;whiteSpace=wrap;rounded=0;" vertex="1" parent="1">
          <mxGeometry x="252.5" y="590" width="95" height="30" as="geometry" />
        </mxCell>
        <mxCell id="yIOIV1xacTzEMDDMlW0B-6" value="" style="verticalLabelPosition=bottom;shadow=0;dashed=0;align=center;html=1;verticalAlign=top;strokeWidth=1;shape=mxgraph.mockup.misc.mail2;strokeColor=#0A0A0A;" vertex="1" parent="1">
          <mxGeometry x="380" y="550" width="100" height="80" as="geometry" />
        </mxCell>
        <mxCell id="yIOIV1xacTzEMDDMlW0B-7" value="Reminder sharing feature." style="text;html=1;align=center;verticalAlign=middle;whiteSpace=wrap;rounded=0;" vertex="1" parent="1">
          <mxGeometry x="382.5" y="590" width="95" height="30" as="geometry" />
        </mxCell>
        <mxCell id="yIOIV1xacTzEMDDMlW0B-8" style="edgeStyle=orthogonalEdgeStyle;rounded=0;orthogonalLoop=1;jettySize=auto;html=1;entryX=-0.001;entryY=0.386;entryDx=0;entryDy=0;entryPerimeter=0;" edge="1" parent="1" source="r06UNlYt8YJPEvpFZ8E3-6" target="r06UNlYt8YJPEvpFZ8E3-7">
          <mxGeometry relative="1" as="geometry" />
        </mxCell>
        <mxCell id="yIOIV1xacTzEMDDMlW0B-10" value="" style="whiteSpace=wrap;html=1;aspect=fixed;" vertex="1" parent="1">
          <mxGeometry x="30" y="690" width="180" height="180" as="geometry" />
        </mxCell>
        <mxCell id="yIOIV1xacTzEMDDMlW0B-11" value="&lt;b&gt;E-commerce Integration&lt;/b&gt;" style="text;html=1;align=center;verticalAlign=middle;whiteSpace=wrap;rounded=0;" vertex="1" parent="1">
          <mxGeometry x="60" y="700" width="140" height="30" as="geometry" />
        </mxCell>
        <mxCell id="yIOIV1xacTzEMDDMlW0B-15" style="edgeStyle=orthogonalEdgeStyle;rounded=0;orthogonalLoop=1;jettySize=auto;html=1;exitX=1;exitY=0.5;exitDx=0;exitDy=0;entryX=0.75;entryY=0;entryDx=0;entryDy=0;" edge="1" parent="1" source="yIOIV1xacTzEMDDMlW0B-12" target="yIOIV1xacTzEMDDMlW0B-13">
          <mxGeometry relative="1" as="geometry" />
        </mxCell>
        <mxCell id="yIOIV1xacTzEMDDMlW0B-12" value="Medicine purchase feature." style="rounded=1;whiteSpace=wrap;html=1;" vertex="1" parent="1">
          <mxGeometry x="40" y="740" width="100" height="45" as="geometry" />
        </mxCell>
        <mxCell id="yIOIV1xacTzEMDDMlW0B-13" value="Secure payment integration." style="rounded=1;whiteSpace=wrap;html=1;" vertex="1" parent="1">
          <mxGeometry x="100" y="800" width="100" height="50" as="geometry" />
        </mxCell>
        <mxCell id="yIOIV1xacTzEMDDMlW0B-25" style="edgeStyle=orthogonalEdgeStyle;rounded=0;orthogonalLoop=1;jettySize=auto;html=1;exitX=0.25;exitY=1;exitDx=0;exitDy=0;entryX=0.604;entryY=0.026;entryDx=0;entryDy=0;entryPerimeter=0;" edge="1" parent="1" source="yIOIV1xacTzEMDDMlW0B-2" target="yIOIV1xacTzEMDDMlW0B-4">
          <mxGeometry relative="1" as="geometry" />
        </mxCell>
        <mxCell id="yIOIV1xacTzEMDDMlW0B-35" value="" style="whiteSpace=wrap;html=1;aspect=fixed;" vertex="1" parent="1">
          <mxGeometry x="590" y="405" width="170" height="170" as="geometry" />
        </mxCell>
        <mxCell id="yIOIV1xacTzEMDDMlW0B-37" value="Doctor rating system." style="rounded=0;whiteSpace=wrap;html=1;" vertex="1" parent="1">
          <mxGeometry x="490" y="250" width="140" height="60" as="geometry" />
        </mxCell>
        <mxCell id="yIOIV1xacTzEMDDMlW0B-40" value="Patients can provide ratings." style="text;html=1;align=center;verticalAlign=middle;resizable=0;points=[];autosize=1;strokeColor=none;fillColor=none;" vertex="1" parent="1">
          <mxGeometry x="320" y="255" width="170" height="30" as="geometry" />
        </mxCell>
        <mxCell id="yIOIV1xacTzEMDDMlW0B-41" value="Emergency ambulance booking." style="rounded=1;whiteSpace=wrap;html=1;" vertex="1" parent="1">
          <mxGeometry x="610" y="480" width="115" height="60" as="geometry" />
        </mxCell>
        <mxCell id="yIOIV1xacTzEMDDMlW0B-42" value="&lt;b&gt;Ambulance Tracking&lt;/b&gt;" style="text;html=1;align=center;verticalAlign=middle;whiteSpace=wrap;rounded=0;" vertex="1" parent="1">
          <mxGeometry x="600" y="425" width="140" height="30" as="geometry" />
        </mxCell>
        <mxCell id="yIOIV1xacTzEMDDMlW0B-53" value="" style="whiteSpace=wrap;html=1;aspect=fixed;" vertex="1" parent="1">
          <mxGeometry x="717.5" y="643.75" width="237.5" height="237.5" as="geometry" />
        </mxCell>
        <mxCell id="yIOIV1xacTzEMDDMlW0B-54" value="&lt;b&gt;Optical Character Recognition&amp;nbsp;&amp;nbsp;&lt;/b&gt;" style="text;html=1;align=center;verticalAlign=middle;whiteSpace=wrap;rounded=0;" vertex="1" parent="1">
          <mxGeometry x="745" y="650" width="190" height="30" as="geometry" />
        </mxCell>
        <mxCell id="yIOIV1xacTzEMDDMlW0B-63" style="edgeStyle=orthogonalEdgeStyle;rounded=0;orthogonalLoop=1;jettySize=auto;html=1;" edge="1" parent="1" source="yIOIV1xacTzEMDDMlW0B-55" target="yIOIV1xacTzEMDDMlW0B-56">
          <mxGeometry relative="1" as="geometry" />
        </mxCell>
        <mxCell id="yIOIV1xacTzEMDDMlW0B-55" value="Patient will upload medical reports for OCR analyzes" style="rounded=1;whiteSpace=wrap;html=1;" vertex="1" parent="1">
          <mxGeometry x="752.5" y="700" width="175" height="50" as="geometry" />
        </mxCell>
        <mxCell id="yIOIV1xacTzEMDDMlW0B-56" value="Chatbot will provide related prescription and health care&amp;nbsp;" style="rounded=1;whiteSpace=wrap;html=1;" vertex="1" parent="1">
          <mxGeometry x="752.5" y="810" width="175" height="50" as="geometry" />
        </mxCell>
        <mxCell id="yIOIV1xacTzEMDDMlW0B-69" style="edgeStyle=orthogonalEdgeStyle;rounded=0;orthogonalLoop=1;jettySize=auto;html=1;" edge="1" parent="1" source="yIOIV1xacTzEMDDMlW0B-64">
          <mxGeometry relative="1" as="geometry">
            <mxPoint x="660" y="580" as="targetPoint" />
          </mxGeometry>
        </mxCell>
        <mxCell id="yIOIV1xacTzEMDDMlW0B-78" style="edgeStyle=orthogonalEdgeStyle;rounded=0;orthogonalLoop=1;jettySize=auto;html=1;exitX=0.5;exitY=1;exitDx=0;exitDy=0;entryX=0.5;entryY=0;entryDx=0;entryDy=0;" edge="1" parent="1" source="yIOIV1xacTzEMDDMlW0B-64" target="yIOIV1xacTzEMDDMlW0B-71">
          <mxGeometry relative="1" as="geometry" />
        </mxCell>
        <mxCell id="yIOIV1xacTzEMDDMlW0B-64" value="Admin" style="rounded=0;whiteSpace=wrap;html=1;" vertex="1" parent="1">
          <mxGeometry x="435" y="685" width="165" height="60" as="geometry" />
        </mxCell>
        <mxCell id="yIOIV1xacTzEMDDMlW0B-68" style="edgeStyle=orthogonalEdgeStyle;rounded=0;orthogonalLoop=1;jettySize=auto;html=1;entryX=0.014;entryY=0.661;entryDx=0;entryDy=0;entryPerimeter=0;" edge="1" parent="1" source="yIOIV1xacTzEMDDMlW0B-64" target="yIOIV1xacTzEMDDMlW0B-53">
          <mxGeometry relative="1" as="geometry">
            <mxPoint x="710" y="800" as="targetPoint" />
            <Array as="points">
              <mxPoint x="660" y="715" />
              <mxPoint x="660" y="801" />
            </Array>
          </mxGeometry>
        </mxCell>
        <mxCell id="yIOIV1xacTzEMDDMlW0B-71" value="" style="rounded=0;whiteSpace=wrap;html=1;" vertex="1" parent="1">
          <mxGeometry x="262.5" y="800" width="287.5" height="200" as="geometry" />
        </mxCell>
        <mxCell id="yIOIV1xacTzEMDDMlW0B-75" value="Generates comprehensive health reports using multiple prescriptions from different Doctors." style="shape=cylinder3;whiteSpace=wrap;html=1;boundedLbl=1;backgroundOutline=1;size=15;" vertex="1" parent="1">
          <mxGeometry x="360" y="881.25" width="180" height="110" as="geometry" />
        </mxCell>
        <mxCell id="yIOIV1xacTzEMDDMlW0B-76" value="&lt;b&gt;Documentation Generation&amp;nbsp;&lt;/b&gt;" style="rounded=1;whiteSpace=wrap;html=1;" vertex="1" parent="1">
          <mxGeometry x="280" y="820" width="250" height="30" as="geometry" />
        </mxCell>
        <mxCell id="yIOIV1xacTzEMDDMlW0B-77" style="edgeStyle=orthogonalEdgeStyle;rounded=0;orthogonalLoop=1;jettySize=auto;html=1;exitX=0.25;exitY=1;exitDx=0;exitDy=0;entryX=0.5;entryY=0;entryDx=0;entryDy=0;entryPerimeter=0;" edge="1" parent="1" source="yIOIV1xacTzEMDDMlW0B-76" target="yIOIV1xacTzEMDDMlW0B-75">
          <mxGeometry relative="1" as="geometry" />
        </mxCell>
      </root>
    </mxGraphModel>
  </diagram>
  <diagram name="Page-1" id="ps9KodnQ-DRR19m-gXWh">
    <mxGraphModel dx="1500" dy="746" grid="1" gridSize="10" guides="1" tooltips="1" connect="1" arrows="1" fold="1" page="1" pageScale="1" pageWidth="850" pageHeight="1100" math="0" shadow="0">
      <root>
        <mxCell id="0" />
        <mxCell id="1" parent="0" />
      </root>
    </mxGraphModel>
  </diagram>
</mxfile>
